<mxfile host="app.diagrams.net" agent="Mozilla/5.0 (Windows NT 10.0; Win64; x64) AppleWebKit/537.36 (KHTML, like Gecko) Chrome/131.0.0.0 Safari/537.36 Edg/131.0.0.0" version="25.0.3">
  <diagram name="Page-1" id="e3fn2FCBMkRyjc_slhdY">
    <mxGraphModel dx="1263" dy="913" grid="1" gridSize="10" guides="1" tooltips="1" connect="1" arrows="1" fold="1" page="0" pageScale="1" pageWidth="850" pageHeight="1100" math="1" shadow="0">
      <root>
        <mxCell id="0" />
        <mxCell id="1" parent="0" />
        <mxCell id="ej5E-Q9b4irR-Yk-x38S-5" value="" style="group" parent="1" vertex="1" connectable="0">
          <mxGeometry x="80" width="40" height="40" as="geometry" />
        </mxCell>
        <mxCell id="8MbJN5mmW0D5kua6WHwb-17" value="" style="ellipse;whiteSpace=wrap;html=1;aspect=fixed;" parent="ej5E-Q9b4irR-Yk-x38S-5" vertex="1">
          <mxGeometry width="40" height="40" as="geometry" />
        </mxCell>
        <mxCell id="ej5E-Q9b4irR-Yk-x38S-2" value="" style="endArrow=none;html=1;rounded=0;entryX=0.5;entryY=0;entryDx=0;entryDy=0;exitX=0.5;exitY=1;exitDx=0;exitDy=0;" parent="ej5E-Q9b4irR-Yk-x38S-5" source="8MbJN5mmW0D5kua6WHwb-17" target="8MbJN5mmW0D5kua6WHwb-17" edge="1">
          <mxGeometry width="50" height="50" relative="1" as="geometry">
            <mxPoint x="-100" y="220" as="sourcePoint" />
            <mxPoint x="-50" y="170" as="targetPoint" />
          </mxGeometry>
        </mxCell>
        <mxCell id="ej5E-Q9b4irR-Yk-x38S-3" value="" style="endArrow=none;html=1;rounded=0;entryX=1;entryY=0.5;entryDx=0;entryDy=0;exitX=0;exitY=0.5;exitDx=0;exitDy=0;" parent="ej5E-Q9b4irR-Yk-x38S-5" source="8MbJN5mmW0D5kua6WHwb-17" target="8MbJN5mmW0D5kua6WHwb-17" edge="1">
          <mxGeometry width="50" height="50" relative="1" as="geometry">
            <mxPoint x="30" y="50" as="sourcePoint" />
            <mxPoint x="30" y="10" as="targetPoint" />
          </mxGeometry>
        </mxCell>
        <mxCell id="ej5E-Q9b4irR-Yk-x38S-70" value="" style="group" parent="1" vertex="1" connectable="0">
          <mxGeometry y="120" width="440" height="40" as="geometry" />
        </mxCell>
        <mxCell id="ej5E-Q9b4irR-Yk-x38S-59" value="$$m_0$$" style="rounded=0;whiteSpace=wrap;html=1;" parent="ej5E-Q9b4irR-Yk-x38S-70" vertex="1">
          <mxGeometry width="40" height="40" as="geometry" />
        </mxCell>
        <mxCell id="ej5E-Q9b4irR-Yk-x38S-60" value="$$m_1$$" style="rounded=0;whiteSpace=wrap;html=1;" parent="ej5E-Q9b4irR-Yk-x38S-70" vertex="1">
          <mxGeometry x="40" width="40" height="40" as="geometry" />
        </mxCell>
        <mxCell id="ej5E-Q9b4irR-Yk-x38S-61" value="$$m_2$$" style="rounded=0;whiteSpace=wrap;html=1;" parent="ej5E-Q9b4irR-Yk-x38S-70" vertex="1">
          <mxGeometry x="80" width="40" height="40" as="geometry" />
        </mxCell>
        <mxCell id="ej5E-Q9b4irR-Yk-x38S-62" value="$$m_3$$" style="rounded=0;whiteSpace=wrap;html=1;" parent="ej5E-Q9b4irR-Yk-x38S-70" vertex="1">
          <mxGeometry x="120" width="40" height="40" as="geometry" />
        </mxCell>
        <mxCell id="ej5E-Q9b4irR-Yk-x38S-63" value="$$m_4$$" style="rounded=0;whiteSpace=wrap;html=1;" parent="ej5E-Q9b4irR-Yk-x38S-70" vertex="1">
          <mxGeometry x="160" width="40" height="40" as="geometry" />
        </mxCell>
        <mxCell id="ej5E-Q9b4irR-Yk-x38S-64" value="$$m_5$$" style="rounded=0;whiteSpace=wrap;html=1;" parent="ej5E-Q9b4irR-Yk-x38S-70" vertex="1">
          <mxGeometry x="200" width="40" height="40" as="geometry" />
        </mxCell>
        <mxCell id="ej5E-Q9b4irR-Yk-x38S-65" value="$$m_6$$" style="rounded=0;whiteSpace=wrap;html=1;" parent="ej5E-Q9b4irR-Yk-x38S-70" vertex="1">
          <mxGeometry x="240" width="40" height="40" as="geometry" />
        </mxCell>
        <mxCell id="ej5E-Q9b4irR-Yk-x38S-66" value="$$m_7$$" style="rounded=0;whiteSpace=wrap;html=1;" parent="ej5E-Q9b4irR-Yk-x38S-70" vertex="1">
          <mxGeometry x="280" width="40" height="40" as="geometry" />
        </mxCell>
        <mxCell id="ej5E-Q9b4irR-Yk-x38S-67" value="$$m_8$$" style="rounded=0;whiteSpace=wrap;html=1;" parent="ej5E-Q9b4irR-Yk-x38S-70" vertex="1">
          <mxGeometry x="320" width="40" height="40" as="geometry" />
        </mxCell>
        <mxCell id="ej5E-Q9b4irR-Yk-x38S-68" value="$$m_9$$" style="rounded=0;whiteSpace=wrap;html=1;" parent="ej5E-Q9b4irR-Yk-x38S-70" vertex="1">
          <mxGeometry x="360" width="40" height="40" as="geometry" />
        </mxCell>
        <mxCell id="ej5E-Q9b4irR-Yk-x38S-69" value="$$m_{10}$$" style="rounded=0;whiteSpace=wrap;html=1;" parent="ej5E-Q9b4irR-Yk-x38S-70" vertex="1">
          <mxGeometry x="400" width="40" height="40" as="geometry" />
        </mxCell>
        <mxCell id="ej5E-Q9b4irR-Yk-x38S-79" value="" style="group" parent="1" vertex="1" connectable="0">
          <mxGeometry x="140" y="-80" width="160" height="40" as="geometry" />
        </mxCell>
        <mxCell id="ej5E-Q9b4irR-Yk-x38S-75" value="$$b_0$$" style="rounded=0;whiteSpace=wrap;html=1;" parent="ej5E-Q9b4irR-Yk-x38S-79" vertex="1">
          <mxGeometry width="40" height="40" as="geometry" />
        </mxCell>
        <mxCell id="ej5E-Q9b4irR-Yk-x38S-76" value="$$b_1$$" style="rounded=0;whiteSpace=wrap;html=1;" parent="ej5E-Q9b4irR-Yk-x38S-79" vertex="1">
          <mxGeometry x="40" width="40" height="40" as="geometry" />
        </mxCell>
        <mxCell id="ej5E-Q9b4irR-Yk-x38S-77" value="$$b_2$$" style="rounded=0;whiteSpace=wrap;html=1;" parent="ej5E-Q9b4irR-Yk-x38S-79" vertex="1">
          <mxGeometry x="80" width="40" height="40" as="geometry" />
        </mxCell>
        <mxCell id="ej5E-Q9b4irR-Yk-x38S-78" value="$$b_3$$" style="rounded=0;whiteSpace=wrap;html=1;" parent="ej5E-Q9b4irR-Yk-x38S-79" vertex="1">
          <mxGeometry x="120" width="40" height="40" as="geometry" />
        </mxCell>
        <mxCell id="YK9_3uqSvh3lPrEFUs7B-2" style="edgeStyle=none;curved=1;rounded=0;orthogonalLoop=1;jettySize=auto;html=1;exitX=0.385;exitY=0.024;exitDx=0;exitDy=0;fontSize=12;startSize=8;endSize=8;exitPerimeter=0;entryX=1;entryY=1;entryDx=0;entryDy=0;" edge="1" parent="1" source="ej5E-Q9b4irR-Yk-x38S-64" target="8MbJN5mmW0D5kua6WHwb-17">
          <mxGeometry relative="1" as="geometry">
            <mxPoint x="140" y="70" as="targetPoint" />
          </mxGeometry>
        </mxCell>
        <mxCell id="YK9_3uqSvh3lPrEFUs7B-3" style="edgeStyle=none;curved=1;rounded=0;orthogonalLoop=1;jettySize=auto;html=1;exitX=0.5;exitY=0;exitDx=0;exitDy=0;fontSize=12;startSize=8;endSize=8;entryX=1;entryY=1;entryDx=0;entryDy=0;" edge="1" parent="1" source="ej5E-Q9b4irR-Yk-x38S-63" target="8MbJN5mmW0D5kua6WHwb-17">
          <mxGeometry relative="1" as="geometry">
            <mxPoint x="100" y="80" as="targetPoint" />
            <mxPoint x="30" y="130" as="sourcePoint" />
          </mxGeometry>
        </mxCell>
        <mxCell id="YK9_3uqSvh3lPrEFUs7B-4" style="edgeStyle=none;curved=1;rounded=0;orthogonalLoop=1;jettySize=auto;html=1;exitX=0.5;exitY=0;exitDx=0;exitDy=0;fontSize=12;startSize=8;endSize=8;entryX=1;entryY=1;entryDx=0;entryDy=0;" edge="1" parent="1" source="ej5E-Q9b4irR-Yk-x38S-65" target="8MbJN5mmW0D5kua6WHwb-17">
          <mxGeometry relative="1" as="geometry">
            <mxPoint x="220" y="60" as="targetPoint" />
          </mxGeometry>
        </mxCell>
        <mxCell id="YK9_3uqSvh3lPrEFUs7B-5" style="edgeStyle=none;curved=1;rounded=0;orthogonalLoop=1;jettySize=auto;html=1;exitX=0.5;exitY=0;exitDx=0;exitDy=0;fontSize=12;startSize=8;endSize=8;entryX=1;entryY=1;entryDx=0;entryDy=0;" edge="1" parent="1" source="ej5E-Q9b4irR-Yk-x38S-66" target="8MbJN5mmW0D5kua6WHwb-17">
          <mxGeometry relative="1" as="geometry">
            <mxPoint x="230" y="70" as="targetPoint" />
          </mxGeometry>
        </mxCell>
        <mxCell id="YK9_3uqSvh3lPrEFUs7B-6" style="edgeStyle=none;curved=1;rounded=0;orthogonalLoop=1;jettySize=auto;html=1;exitX=0.5;exitY=0;exitDx=0;exitDy=0;entryX=1;entryY=1;entryDx=0;entryDy=0;fontSize=12;startSize=8;endSize=8;" edge="1" parent="1" source="ej5E-Q9b4irR-Yk-x38S-67" target="8MbJN5mmW0D5kua6WHwb-17">
          <mxGeometry relative="1" as="geometry" />
        </mxCell>
        <mxCell id="YK9_3uqSvh3lPrEFUs7B-7" style="edgeStyle=none;curved=1;rounded=0;orthogonalLoop=1;jettySize=auto;html=1;exitX=0.5;exitY=0;exitDx=0;exitDy=0;fontSize=12;startSize=8;endSize=8;entryX=1;entryY=1;entryDx=0;entryDy=0;" edge="1" parent="1" source="ej5E-Q9b4irR-Yk-x38S-68" target="8MbJN5mmW0D5kua6WHwb-17">
          <mxGeometry relative="1" as="geometry">
            <mxPoint x="240" y="60" as="targetPoint" />
          </mxGeometry>
        </mxCell>
        <mxCell id="YK9_3uqSvh3lPrEFUs7B-8" style="edgeStyle=none;curved=1;rounded=0;orthogonalLoop=1;jettySize=auto;html=1;exitX=0.5;exitY=0;exitDx=0;exitDy=0;fontSize=12;startSize=8;endSize=8;entryX=1;entryY=1;entryDx=0;entryDy=0;" edge="1" parent="1" source="ej5E-Q9b4irR-Yk-x38S-69" target="8MbJN5mmW0D5kua6WHwb-17">
          <mxGeometry relative="1" as="geometry">
            <mxPoint x="200" y="60" as="targetPoint" />
          </mxGeometry>
        </mxCell>
        <mxCell id="YK9_3uqSvh3lPrEFUs7B-9" value="" style="group" vertex="1" connectable="0" parent="1">
          <mxGeometry x="160" width="40" height="40" as="geometry" />
        </mxCell>
        <mxCell id="YK9_3uqSvh3lPrEFUs7B-10" value="" style="ellipse;whiteSpace=wrap;html=1;aspect=fixed;" vertex="1" parent="YK9_3uqSvh3lPrEFUs7B-9">
          <mxGeometry width="40" height="40" as="geometry" />
        </mxCell>
        <mxCell id="YK9_3uqSvh3lPrEFUs7B-11" value="" style="endArrow=none;html=1;rounded=0;entryX=0.5;entryY=0;entryDx=0;entryDy=0;exitX=0.5;exitY=1;exitDx=0;exitDy=0;" edge="1" parent="YK9_3uqSvh3lPrEFUs7B-9" source="YK9_3uqSvh3lPrEFUs7B-10" target="YK9_3uqSvh3lPrEFUs7B-10">
          <mxGeometry width="50" height="50" relative="1" as="geometry">
            <mxPoint x="-100" y="220" as="sourcePoint" />
            <mxPoint x="-50" y="170" as="targetPoint" />
          </mxGeometry>
        </mxCell>
        <mxCell id="YK9_3uqSvh3lPrEFUs7B-12" value="" style="endArrow=none;html=1;rounded=0;entryX=1;entryY=0.5;entryDx=0;entryDy=0;exitX=0;exitY=0.5;exitDx=0;exitDy=0;" edge="1" parent="YK9_3uqSvh3lPrEFUs7B-9" source="YK9_3uqSvh3lPrEFUs7B-10" target="YK9_3uqSvh3lPrEFUs7B-10">
          <mxGeometry width="50" height="50" relative="1" as="geometry">
            <mxPoint x="30" y="50" as="sourcePoint" />
            <mxPoint x="30" y="10" as="targetPoint" />
          </mxGeometry>
        </mxCell>
        <mxCell id="YK9_3uqSvh3lPrEFUs7B-14" style="edgeStyle=none;curved=1;rounded=0;orthogonalLoop=1;jettySize=auto;html=1;exitX=0.5;exitY=0;exitDx=0;exitDy=0;entryX=0;entryY=1;entryDx=0;entryDy=0;fontSize=12;startSize=8;endSize=8;" edge="1" parent="1" source="ej5E-Q9b4irR-Yk-x38S-60" target="YK9_3uqSvh3lPrEFUs7B-10">
          <mxGeometry relative="1" as="geometry" />
        </mxCell>
        <mxCell id="YK9_3uqSvh3lPrEFUs7B-15" style="edgeStyle=none;curved=1;rounded=0;orthogonalLoop=1;jettySize=auto;html=1;exitX=0.5;exitY=0;exitDx=0;exitDy=0;fontSize=12;startSize=8;endSize=8;entryX=0;entryY=1;entryDx=0;entryDy=0;" edge="1" parent="1" source="ej5E-Q9b4irR-Yk-x38S-61" target="YK9_3uqSvh3lPrEFUs7B-10">
          <mxGeometry relative="1" as="geometry">
            <mxPoint x="170" y="29.999999999999886" as="targetPoint" />
          </mxGeometry>
        </mxCell>
        <mxCell id="YK9_3uqSvh3lPrEFUs7B-16" style="edgeStyle=none;curved=1;rounded=0;orthogonalLoop=1;jettySize=auto;html=1;exitX=0.5;exitY=0;exitDx=0;exitDy=0;fontSize=12;startSize=8;endSize=8;entryX=0;entryY=1;entryDx=0;entryDy=0;" edge="1" parent="1" source="ej5E-Q9b4irR-Yk-x38S-62" target="YK9_3uqSvh3lPrEFUs7B-10">
          <mxGeometry relative="1" as="geometry">
            <mxPoint x="160" y="40" as="targetPoint" />
          </mxGeometry>
        </mxCell>
        <mxCell id="YK9_3uqSvh3lPrEFUs7B-17" style="edgeStyle=none;curved=1;rounded=0;orthogonalLoop=1;jettySize=auto;html=1;exitX=0.5;exitY=0;exitDx=0;exitDy=0;entryX=1;entryY=1;entryDx=0;entryDy=0;fontSize=12;startSize=8;endSize=8;" edge="1" parent="1" source="ej5E-Q9b4irR-Yk-x38S-66" target="YK9_3uqSvh3lPrEFUs7B-10">
          <mxGeometry relative="1" as="geometry" />
        </mxCell>
        <mxCell id="YK9_3uqSvh3lPrEFUs7B-18" style="edgeStyle=none;curved=1;rounded=0;orthogonalLoop=1;jettySize=auto;html=1;exitX=0.5;exitY=0;exitDx=0;exitDy=0;fontSize=12;startSize=8;endSize=8;entryX=1;entryY=1;entryDx=0;entryDy=0;" edge="1" parent="1" source="ej5E-Q9b4irR-Yk-x38S-67" target="YK9_3uqSvh3lPrEFUs7B-10">
          <mxGeometry relative="1" as="geometry">
            <mxPoint x="190" y="30" as="targetPoint" />
          </mxGeometry>
        </mxCell>
        <mxCell id="YK9_3uqSvh3lPrEFUs7B-19" style="edgeStyle=none;curved=1;rounded=0;orthogonalLoop=1;jettySize=auto;html=1;exitX=0.5;exitY=0;exitDx=0;exitDy=0;entryX=1;entryY=1;entryDx=0;entryDy=0;fontSize=12;startSize=8;endSize=8;" edge="1" parent="1" source="ej5E-Q9b4irR-Yk-x38S-68" target="YK9_3uqSvh3lPrEFUs7B-10">
          <mxGeometry relative="1" as="geometry" />
        </mxCell>
        <mxCell id="YK9_3uqSvh3lPrEFUs7B-20" style="edgeStyle=none;curved=1;rounded=0;orthogonalLoop=1;jettySize=auto;html=1;exitX=0.5;exitY=0;exitDx=0;exitDy=0;fontSize=12;startSize=8;endSize=8;entryX=1;entryY=1;entryDx=0;entryDy=0;" edge="1" parent="1" source="ej5E-Q9b4irR-Yk-x38S-69" target="YK9_3uqSvh3lPrEFUs7B-10">
          <mxGeometry relative="1" as="geometry">
            <mxPoint x="180.0000000000001" y="40.000000000000114" as="targetPoint" />
          </mxGeometry>
        </mxCell>
        <mxCell id="YK9_3uqSvh3lPrEFUs7B-22" value="" style="group" vertex="1" connectable="0" parent="1">
          <mxGeometry x="240" width="40" height="40" as="geometry" />
        </mxCell>
        <mxCell id="YK9_3uqSvh3lPrEFUs7B-23" value="" style="ellipse;whiteSpace=wrap;html=1;aspect=fixed;" vertex="1" parent="YK9_3uqSvh3lPrEFUs7B-22">
          <mxGeometry width="40" height="40" as="geometry" />
        </mxCell>
        <mxCell id="YK9_3uqSvh3lPrEFUs7B-24" value="" style="endArrow=none;html=1;rounded=0;entryX=0.5;entryY=0;entryDx=0;entryDy=0;exitX=0.5;exitY=1;exitDx=0;exitDy=0;" edge="1" parent="YK9_3uqSvh3lPrEFUs7B-22" source="YK9_3uqSvh3lPrEFUs7B-23" target="YK9_3uqSvh3lPrEFUs7B-23">
          <mxGeometry width="50" height="50" relative="1" as="geometry">
            <mxPoint x="-100" y="220" as="sourcePoint" />
            <mxPoint x="-50" y="170" as="targetPoint" />
          </mxGeometry>
        </mxCell>
        <mxCell id="YK9_3uqSvh3lPrEFUs7B-25" value="" style="endArrow=none;html=1;rounded=0;entryX=1;entryY=0.5;entryDx=0;entryDy=0;exitX=0;exitY=0.5;exitDx=0;exitDy=0;" edge="1" parent="YK9_3uqSvh3lPrEFUs7B-22" source="YK9_3uqSvh3lPrEFUs7B-23" target="YK9_3uqSvh3lPrEFUs7B-23">
          <mxGeometry width="50" height="50" relative="1" as="geometry">
            <mxPoint x="30" y="50" as="sourcePoint" />
            <mxPoint x="30" y="10" as="targetPoint" />
          </mxGeometry>
        </mxCell>
        <mxCell id="YK9_3uqSvh3lPrEFUs7B-26" style="edgeStyle=none;curved=1;rounded=0;orthogonalLoop=1;jettySize=auto;html=1;exitX=0.5;exitY=0;exitDx=0;exitDy=0;entryX=0;entryY=1;entryDx=0;entryDy=0;fontSize=12;startSize=8;endSize=8;" edge="1" parent="1" source="ej5E-Q9b4irR-Yk-x38S-59" target="YK9_3uqSvh3lPrEFUs7B-23">
          <mxGeometry relative="1" as="geometry" />
        </mxCell>
        <mxCell id="YK9_3uqSvh3lPrEFUs7B-27" style="edgeStyle=none;curved=1;rounded=0;orthogonalLoop=1;jettySize=auto;html=1;exitX=0.5;exitY=0;exitDx=0;exitDy=0;fontSize=12;startSize=8;endSize=8;entryX=0;entryY=1;entryDx=0;entryDy=0;" edge="1" parent="1" source="ej5E-Q9b4irR-Yk-x38S-61" target="YK9_3uqSvh3lPrEFUs7B-23">
          <mxGeometry relative="1" as="geometry">
            <mxPoint x="340" y="20.000000000000114" as="targetPoint" />
          </mxGeometry>
        </mxCell>
        <mxCell id="YK9_3uqSvh3lPrEFUs7B-28" style="edgeStyle=none;curved=1;rounded=0;orthogonalLoop=1;jettySize=auto;html=1;exitX=0.5;exitY=0;exitDx=0;exitDy=0;entryX=0;entryY=1;entryDx=0;entryDy=0;fontSize=12;startSize=8;endSize=8;" edge="1" parent="1" source="ej5E-Q9b4irR-Yk-x38S-62" target="YK9_3uqSvh3lPrEFUs7B-23">
          <mxGeometry relative="1" as="geometry" />
        </mxCell>
        <mxCell id="YK9_3uqSvh3lPrEFUs7B-29" style="edgeStyle=none;curved=1;rounded=0;orthogonalLoop=1;jettySize=auto;html=1;exitX=0.5;exitY=0;exitDx=0;exitDy=0;entryX=0.5;entryY=1;entryDx=0;entryDy=0;fontSize=12;startSize=8;endSize=8;" edge="1" parent="1" source="ej5E-Q9b4irR-Yk-x38S-64" target="YK9_3uqSvh3lPrEFUs7B-23">
          <mxGeometry relative="1" as="geometry" />
        </mxCell>
        <mxCell id="YK9_3uqSvh3lPrEFUs7B-30" style="edgeStyle=none;curved=1;rounded=0;orthogonalLoop=1;jettySize=auto;html=1;exitX=0.5;exitY=0;exitDx=0;exitDy=0;entryX=1;entryY=1;entryDx=0;entryDy=0;fontSize=12;startSize=8;endSize=8;" edge="1" parent="1" source="ej5E-Q9b4irR-Yk-x38S-69" target="YK9_3uqSvh3lPrEFUs7B-23">
          <mxGeometry relative="1" as="geometry" />
        </mxCell>
        <mxCell id="YK9_3uqSvh3lPrEFUs7B-31" style="edgeStyle=none;curved=1;rounded=0;orthogonalLoop=1;jettySize=auto;html=1;exitX=0.5;exitY=0;exitDx=0;exitDy=0;entryX=1;entryY=1;entryDx=0;entryDy=0;fontSize=12;startSize=8;endSize=8;" edge="1" parent="1" source="ej5E-Q9b4irR-Yk-x38S-68" target="YK9_3uqSvh3lPrEFUs7B-23">
          <mxGeometry relative="1" as="geometry" />
        </mxCell>
        <mxCell id="YK9_3uqSvh3lPrEFUs7B-34" style="edgeStyle=none;curved=1;rounded=0;orthogonalLoop=1;jettySize=auto;html=1;exitX=0.5;exitY=0;exitDx=0;exitDy=0;fontSize=12;startSize=8;endSize=8;entryX=0.5;entryY=1;entryDx=0;entryDy=0;" edge="1" parent="1" source="ej5E-Q9b4irR-Yk-x38S-65" target="YK9_3uqSvh3lPrEFUs7B-23">
          <mxGeometry relative="1" as="geometry">
            <mxPoint x="259.8484848484849" y="30.000000000000114" as="targetPoint" />
          </mxGeometry>
        </mxCell>
        <mxCell id="YK9_3uqSvh3lPrEFUs7B-36" value="" style="group" vertex="1" connectable="0" parent="1">
          <mxGeometry x="320" width="40" height="40" as="geometry" />
        </mxCell>
        <mxCell id="YK9_3uqSvh3lPrEFUs7B-37" value="" style="ellipse;whiteSpace=wrap;html=1;aspect=fixed;" vertex="1" parent="YK9_3uqSvh3lPrEFUs7B-36">
          <mxGeometry width="40" height="40" as="geometry" />
        </mxCell>
        <mxCell id="YK9_3uqSvh3lPrEFUs7B-38" value="" style="endArrow=none;html=1;rounded=0;entryX=0.5;entryY=0;entryDx=0;entryDy=0;exitX=0.5;exitY=1;exitDx=0;exitDy=0;" edge="1" parent="YK9_3uqSvh3lPrEFUs7B-36" source="YK9_3uqSvh3lPrEFUs7B-37" target="YK9_3uqSvh3lPrEFUs7B-37">
          <mxGeometry width="50" height="50" relative="1" as="geometry">
            <mxPoint x="-100" y="220" as="sourcePoint" />
            <mxPoint x="-50" y="170" as="targetPoint" />
          </mxGeometry>
        </mxCell>
        <mxCell id="YK9_3uqSvh3lPrEFUs7B-39" value="" style="endArrow=none;html=1;rounded=0;entryX=1;entryY=0.5;entryDx=0;entryDy=0;exitX=0;exitY=0.5;exitDx=0;exitDy=0;" edge="1" parent="YK9_3uqSvh3lPrEFUs7B-36" source="YK9_3uqSvh3lPrEFUs7B-37" target="YK9_3uqSvh3lPrEFUs7B-37">
          <mxGeometry width="50" height="50" relative="1" as="geometry">
            <mxPoint x="30" y="50" as="sourcePoint" />
            <mxPoint x="30" y="10" as="targetPoint" />
          </mxGeometry>
        </mxCell>
        <mxCell id="YK9_3uqSvh3lPrEFUs7B-40" style="edgeStyle=none;curved=1;rounded=0;orthogonalLoop=1;jettySize=auto;html=1;exitX=0.5;exitY=0;exitDx=0;exitDy=0;fontSize=12;startSize=8;endSize=8;entryX=0;entryY=1;entryDx=0;entryDy=0;" edge="1" parent="1" source="ej5E-Q9b4irR-Yk-x38S-59" target="YK9_3uqSvh3lPrEFUs7B-37">
          <mxGeometry relative="1" as="geometry">
            <mxPoint x="310" y="-20" as="targetPoint" />
          </mxGeometry>
        </mxCell>
        <mxCell id="YK9_3uqSvh3lPrEFUs7B-41" style="edgeStyle=none;curved=1;rounded=0;orthogonalLoop=1;jettySize=auto;html=1;exitX=0.5;exitY=0;exitDx=0;exitDy=0;fontSize=12;startSize=8;endSize=8;entryX=0;entryY=1;entryDx=0;entryDy=0;" edge="1" parent="1" source="ej5E-Q9b4irR-Yk-x38S-60" target="YK9_3uqSvh3lPrEFUs7B-37">
          <mxGeometry relative="1" as="geometry">
            <mxPoint x="430" y="30" as="targetPoint" />
          </mxGeometry>
        </mxCell>
        <mxCell id="YK9_3uqSvh3lPrEFUs7B-42" style="edgeStyle=none;curved=1;rounded=0;orthogonalLoop=1;jettySize=auto;html=1;exitX=0.5;exitY=0;exitDx=0;exitDy=0;entryX=0;entryY=1;entryDx=0;entryDy=0;fontSize=12;startSize=8;endSize=8;" edge="1" parent="1" source="ej5E-Q9b4irR-Yk-x38S-62" target="YK9_3uqSvh3lPrEFUs7B-37">
          <mxGeometry relative="1" as="geometry" />
        </mxCell>
        <mxCell id="YK9_3uqSvh3lPrEFUs7B-43" style="edgeStyle=none;curved=1;rounded=0;orthogonalLoop=1;jettySize=auto;html=1;exitX=0.5;exitY=0;exitDx=0;exitDy=0;fontSize=12;startSize=8;endSize=8;entryX=0;entryY=1;entryDx=0;entryDy=0;" edge="1" parent="1" source="ej5E-Q9b4irR-Yk-x38S-63" target="YK9_3uqSvh3lPrEFUs7B-37">
          <mxGeometry relative="1" as="geometry">
            <mxPoint x="430" y="50" as="targetPoint" />
          </mxGeometry>
        </mxCell>
        <mxCell id="YK9_3uqSvh3lPrEFUs7B-44" style="edgeStyle=none;curved=1;rounded=0;orthogonalLoop=1;jettySize=auto;html=1;exitX=0.5;exitY=0;exitDx=0;exitDy=0;entryX=0;entryY=1;entryDx=0;entryDy=0;fontSize=12;startSize=8;endSize=8;" edge="1" parent="1" source="ej5E-Q9b4irR-Yk-x38S-65" target="YK9_3uqSvh3lPrEFUs7B-37">
          <mxGeometry relative="1" as="geometry" />
        </mxCell>
        <mxCell id="YK9_3uqSvh3lPrEFUs7B-45" style="edgeStyle=none;curved=1;rounded=0;orthogonalLoop=1;jettySize=auto;html=1;exitX=0.5;exitY=0;exitDx=0;exitDy=0;fontSize=12;startSize=8;endSize=8;entryX=0.5;entryY=1;entryDx=0;entryDy=0;" edge="1" parent="1" source="ej5E-Q9b4irR-Yk-x38S-67" target="YK9_3uqSvh3lPrEFUs7B-37">
          <mxGeometry relative="1" as="geometry">
            <mxPoint x="360" y="40" as="targetPoint" />
          </mxGeometry>
        </mxCell>
        <mxCell id="YK9_3uqSvh3lPrEFUs7B-46" style="edgeStyle=none;curved=1;rounded=0;orthogonalLoop=1;jettySize=auto;html=1;exitX=0.5;exitY=0;exitDx=0;exitDy=0;entryX=0.5;entryY=1;entryDx=0;entryDy=0;fontSize=12;startSize=8;endSize=8;" edge="1" parent="1" source="ej5E-Q9b4irR-Yk-x38S-69" target="YK9_3uqSvh3lPrEFUs7B-37">
          <mxGeometry relative="1" as="geometry" />
        </mxCell>
        <mxCell id="YK9_3uqSvh3lPrEFUs7B-47" style="edgeStyle=none;curved=1;rounded=0;orthogonalLoop=1;jettySize=auto;html=1;exitX=1;exitY=0;exitDx=0;exitDy=0;entryX=0.5;entryY=1;entryDx=0;entryDy=0;fontSize=12;startSize=8;endSize=8;" edge="1" parent="1" source="8MbJN5mmW0D5kua6WHwb-17" target="ej5E-Q9b4irR-Yk-x38S-75">
          <mxGeometry relative="1" as="geometry" />
        </mxCell>
        <mxCell id="YK9_3uqSvh3lPrEFUs7B-48" style="edgeStyle=none;curved=1;rounded=0;orthogonalLoop=1;jettySize=auto;html=1;exitX=0.5;exitY=0;exitDx=0;exitDy=0;entryX=0.5;entryY=1;entryDx=0;entryDy=0;fontSize=12;startSize=8;endSize=8;" edge="1" parent="1" source="YK9_3uqSvh3lPrEFUs7B-10" target="ej5E-Q9b4irR-Yk-x38S-76">
          <mxGeometry relative="1" as="geometry" />
        </mxCell>
        <mxCell id="YK9_3uqSvh3lPrEFUs7B-49" style="edgeStyle=none;curved=1;rounded=0;orthogonalLoop=1;jettySize=auto;html=1;exitX=0.5;exitY=0;exitDx=0;exitDy=0;entryX=0.5;entryY=1;entryDx=0;entryDy=0;fontSize=12;startSize=8;endSize=8;" edge="1" parent="1" source="YK9_3uqSvh3lPrEFUs7B-23" target="ej5E-Q9b4irR-Yk-x38S-77">
          <mxGeometry relative="1" as="geometry" />
        </mxCell>
        <mxCell id="YK9_3uqSvh3lPrEFUs7B-50" style="edgeStyle=none;curved=1;rounded=0;orthogonalLoop=1;jettySize=auto;html=1;exitX=0.5;exitY=0;exitDx=0;exitDy=0;entryX=0.5;entryY=1;entryDx=0;entryDy=0;fontSize=12;startSize=8;endSize=8;" edge="1" parent="1" source="YK9_3uqSvh3lPrEFUs7B-37" target="ej5E-Q9b4irR-Yk-x38S-78">
          <mxGeometry relative="1" as="geometry" />
        </mxCell>
        <mxCell id="YK9_3uqSvh3lPrEFUs7B-53" value="" style="endArrow=none;html=1;rounded=0;fontSize=12;startSize=8;endSize=8;curved=1;" edge="1" parent="1">
          <mxGeometry width="50" height="50" relative="1" as="geometry">
            <mxPoint x="230" y="90" as="sourcePoint" />
            <mxPoint x="280" y="40" as="targetPoint" />
          </mxGeometry>
        </mxCell>
        <mxCell id="YK9_3uqSvh3lPrEFUs7B-54" value="" style="endArrow=none;html=1;rounded=0;fontSize=12;startSize=8;endSize=8;curved=1;entryX=0;entryY=0.5;entryDx=0;entryDy=0;" edge="1" parent="1" target="ej5E-Q9b4irR-Yk-x38S-59">
          <mxGeometry width="50" height="50" relative="1" as="geometry">
            <mxPoint x="-40" y="140" as="sourcePoint" />
            <mxPoint x="-50" y="90" as="targetPoint" />
          </mxGeometry>
        </mxCell>
        <mxCell id="YK9_3uqSvh3lPrEFUs7B-55" value="" style="endArrow=oval;html=1;rounded=0;fontSize=12;startSize=8;endSize=8;curved=1;endFill=1;" edge="1" parent="1">
          <mxGeometry width="50" height="50" relative="1" as="geometry">
            <mxPoint x="-40" y="140" as="sourcePoint" />
            <mxPoint x="-40" y="80" as="targetPoint" />
          </mxGeometry>
        </mxCell>
        <mxCell id="YK9_3uqSvh3lPrEFUs7B-56" value="" style="endArrow=classic;html=1;rounded=0;fontSize=12;startSize=8;endSize=8;curved=1;" edge="1" parent="1">
          <mxGeometry width="50" height="50" relative="1" as="geometry">
            <mxPoint x="230" y="90" as="sourcePoint" />
            <mxPoint x="280" y="40" as="targetPoint" />
          </mxGeometry>
        </mxCell>
        <mxCell id="YK9_3uqSvh3lPrEFUs7B-57" value="" style="endArrow=classic;html=1;rounded=0;fontSize=12;startSize=8;endSize=8;curved=1;entryX=1;entryY=0.5;entryDx=0;entryDy=0;" edge="1" parent="1" source="YK9_3uqSvh3lPrEFUs7B-62" target="ej5E-Q9b4irR-Yk-x38S-69">
          <mxGeometry width="50" height="50" relative="1" as="geometry">
            <mxPoint x="520" y="140" as="sourcePoint" />
            <mxPoint x="280" y="40" as="targetPoint" />
          </mxGeometry>
        </mxCell>
        <mxCell id="YK9_3uqSvh3lPrEFUs7B-58" value="" style="endArrow=none;html=1;rounded=0;fontSize=12;startSize=8;endSize=8;curved=1;entryX=0;entryY=0.5;entryDx=0;entryDy=0;" edge="1" parent="1" target="ej5E-Q9b4irR-Yk-x38S-75">
          <mxGeometry width="50" height="50" relative="1" as="geometry">
            <mxPoint x="-40" y="-60" as="sourcePoint" />
            <mxPoint x="280" y="40" as="targetPoint" />
          </mxGeometry>
        </mxCell>
        <mxCell id="YK9_3uqSvh3lPrEFUs7B-59" value="" style="endArrow=none;html=1;rounded=0;fontSize=12;startSize=8;endSize=8;curved=1;startArrow=oval;startFill=1;" edge="1" parent="1">
          <mxGeometry width="50" height="50" relative="1" as="geometry">
            <mxPoint x="-40" as="sourcePoint" />
            <mxPoint x="-40" y="-60" as="targetPoint" />
          </mxGeometry>
        </mxCell>
        <mxCell id="YK9_3uqSvh3lPrEFUs7B-62" value="Message&lt;div&gt;Bits&lt;/div&gt;" style="text;html=1;align=center;verticalAlign=middle;resizable=0;points=[];autosize=1;strokeColor=none;fillColor=none;fontSize=16;" vertex="1" parent="1">
          <mxGeometry x="480" y="115" width="90" height="50" as="geometry" />
        </mxCell>
        <mxCell id="YK9_3uqSvh3lPrEFUs7B-63" value="Codeword" style="text;html=1;align=center;verticalAlign=middle;resizable=0;points=[];autosize=1;strokeColor=none;fillColor=none;fontSize=16;imageWidth=30;" vertex="1" parent="1">
          <mxGeometry x="-220" y="30" width="100" height="30" as="geometry" />
        </mxCell>
        <mxCell id="YK9_3uqSvh3lPrEFUs7B-64" value="" style="endArrow=none;html=1;rounded=0;fontSize=12;startSize=8;endSize=8;curved=1;" edge="1" parent="1">
          <mxGeometry width="50" height="50" relative="1" as="geometry">
            <mxPoint x="-40" y="80" as="sourcePoint" />
            <mxPoint x="-80" y="50" as="targetPoint" />
          </mxGeometry>
        </mxCell>
        <mxCell id="YK9_3uqSvh3lPrEFUs7B-65" value="" style="endArrow=classic;html=1;rounded=0;fontSize=12;startSize=8;endSize=8;curved=1;entryX=0.993;entryY=0.641;entryDx=0;entryDy=0;entryPerimeter=0;" edge="1" parent="1" target="YK9_3uqSvh3lPrEFUs7B-63">
          <mxGeometry width="50" height="50" relative="1" as="geometry">
            <mxPoint x="-80" y="50" as="sourcePoint" />
            <mxPoint x="-120.00000000000003" y="50" as="targetPoint" />
          </mxGeometry>
        </mxCell>
      </root>
    </mxGraphModel>
  </diagram>
</mxfile>
